<svg xmlns="http://www.w3.org/2000/svg" viewBox="18 18 476 476"><defs><linearGradient id="g" gradientUnits="userSpaceOnUse" x1="94" y1="0" x2="418" y2="0"><stop offset="0" stop-color="#E3242B"><animate attributeName="stop-color" values="#E3242B;#F6C700;#1F4FBF;#E3242B" dur="11.09s" repeatCount="indefinite"/></stop><stop offset="1" stop-color="#F6C700"><animate attributeName="stop-color" values="#F6C700;#1F4FBF;#E3242B;#F6C700" dur="11.09s" repeatCount="indefinite"/></stop></linearGradient></defs><path fill="url(#g)" d="M94.3,483.6V28c0-5.1,4.2-9.3,9.3-9.3h304.1c5.1,0,9.3,4.2,9.3,9.3v78.4c0,5.1-4.2,9.3-9.3,9.3H224.1 c-5.1,0-9.3,4.2-9.3,9.3v89.6c0,5.1,4.2,9.3,9.3,9.3h165.1c5.1,0,9.3,4.2,9.3,9.3v73.8c0,5.1-4.2,9.3-9.3,9.3H224.1 c-5.1,0-9.3,4.2-9.3,9.3v158.2c0,5.1-4.2,9.3-9.3,9.3H103.5C98.4,492.9,94.3,488.7,94.3,483.6z"/></svg>